<?xml version="1.0" encoding="UTF-8"?>
<svg width="25px" height="28px" viewBox="0 0 25 28" version="1.1" xmlns="http://www.w3.org/2000/svg" xmlns:xlink="http://www.w3.org/1999/xlink">
    <title>tiktok-icon-seeklogo</title>
    <g id="Page-1" stroke="none" stroke-width="1" fill="none" fill-rule="evenodd">
        <g id="tiktok-icon-seeklogo" fill-rule="nonzero">
            <path d="M9.73471398,11.025056 L9.73471398,9.93293931 C9.35173185,9.87925481 8.96550479,9.85140136 8.57870454,9.84957162 C3.84839688,9.84957162 0,13.6588336 0,18.3402499 C0,21.2119461 1.45019569,23.7540193 3.66242451,25.2911912 C2.18114919,23.7234591 1.35763747,21.6569582 1.35882948,19.510604 C1.35882948,14.8958819 5.09771649,11.1327927 9.73471398,11.025056" id="Path" fill="#00F2EA"></path>
            <path d="M9.93688603,23.3878428 C12.0473808,23.3878428 13.7690832,21.7262606 13.8474897,19.6555355 L13.8546176,1.17035407 L17.2669189,1.17035407 C17.1940715,0.78439652 17.1571974,0.392632985 17.1567611,0 L12.4964361,0 L12.4886602,18.4858227 C12.4109017,20.5559066 10.6885514,22.2168474 8.57870454,22.2168474 C7.94526744,22.2170955 7.32134275,22.0643225 6.76110002,21.7717922 C7.49501081,22.7851252 8.67711325,23.3866573 9.93688603,23.3878428 M23.6411705,7.44473448 L23.6411705,6.41738806 C22.3871306,6.41854136 21.1600082,6.05748585 20.1102874,5.37849842 C21.0306103,6.42719735 22.26978,7.15221353 23.6418185,7.44473448" id="Shape" fill="#00F2EA"></path>
            <path d="M20.1102874,5.37785713 C19.0815444,4.21293048 18.5149069,2.71812237 18.5155906,1.17099536 L17.2669189,1.17099536 C17.5936331,2.89905078 18.6211572,4.41930813 20.1102874,5.37785713 M8.57870454,14.4623699 C6.41603737,14.4648436 4.66347259,16.1992943 4.66097302,18.3396086 C4.66237793,19.7807758 5.47083492,21.102424 6.76045204,21.7717922 C6.2786622,21.1142525 6.01920496,20.3228271 6.01915451,19.510604 C6.02129704,17.3700392 7.77396619,15.6351984 9.93688603,15.632724 C10.3405822,15.632724 10.7274306,15.6987768 11.0928955,15.8122851 L11.0928955,11.1032934 C10.7099133,11.0496089 10.3236863,11.0217554 9.93688603,11.0199257 C9.86884736,11.0199257 9.80210466,11.0237734 9.73471398,11.025056 L9.73471398,14.6419311 C9.36086704,14.5241593 8.97103271,14.4636069 8.57870454,14.4623699" id="Shape" fill="#FF004F"></path>
            <path d="M23.6411705,7.44473448 L23.6411705,11.029545 C21.2241777,11.029545 18.9853814,10.2644862 17.1567611,8.96587413 L17.1567611,18.3396086 C17.1567611,23.0210249 13.3090122,26.8296457 8.57870454,26.8296457 C6.75073223,26.8296457 5.05559731,26.2588977 3.66242451,25.2905499 C5.28164887,27.0186817 7.55549331,28.0005775 9.93688603,28 C14.6671937,28 18.5155906,24.191379 18.5155906,19.510604 L18.5155906,10.1368695 C20.4046519,11.4812118 22.6732538,12.203197 25,12.2005404 L25,7.58710084 C24.5334491,7.58710084 24.079858,7.53708023 23.6411705,7.44409319" id="Path" fill="#FF004F"></path>
            <path d="M17.1567611,18.3396086 L17.1567611,8.96587413 C19.0457423,10.3103735 21.3143969,11.0323755 23.6411705,11.029545 L23.6411705,7.44473448 C22.2692818,7.15191176 21.0303467,6.42667481 20.1102874,5.37785713 C18.6211572,4.41930813 17.5936331,2.89905078 17.2669189,1.17099536 L13.8546176,1.17099536 L13.8474897,19.6561768 C13.7690832,21.7262606 12.0473808,23.3878428 9.93688603,23.3878428 C8.6771392,23.3865514 7.49508274,22.7850427 6.76110002,21.7717922 C5.47123189,21.1025976 4.66250436,19.780915 4.66097302,18.3396086 C4.66347259,16.1992943 6.41603737,14.4648436 8.57870454,14.4623699 C8.98175268,14.4623699 9.36860112,14.5277815 9.73471398,14.6419311 L9.73471398,11.025056 C5.09771649,11.1327927 1.35882948,14.8958819 1.35882948,19.510604 C1.35882948,21.7422929 2.23490837,23.7738993 3.66242451,25.2911912 C5.10151116,26.293791 6.81879543,26.8311818 8.57870454,26.829649 C13.3090122,26.829649 17.1567611,23.0210249 17.1567611,18.3396086" id="Path" fill="#FFFFFF"></path>
        </g>
    </g>
</svg>